<?xml version="1.0" encoding="UTF-8" standalone="no"?>
<!DOCTYPE svg PUBLIC "-//W3C//DTD SVG 1.1//EN" "http://www.w3.org/Graphics/SVG/1.1/DTD/svg11.dtd">
<svg width="100%" height="100%" viewBox="0 0 1000 1000" version="1.1" xmlns="http://www.w3.org/2000/svg" xmlns:xlink="http://www.w3.org/1999/xlink" xml:space="preserve" xmlns:serif="http://www.serif.com/" style="fill-rule:evenodd;clip-rule:evenodd;stroke-linejoin:round;stroke-miterlimit:2;">
    <g transform="matrix(8.50333,0,0,8.50333,0,113.094)">
        <g id="svgGroup">
            <g transform="matrix(0.117601,0,0,0.117601,0,-13.3)">
                <circle cx="500" cy="500" r="500" style="fill:white;"/>
            </g>
            <g transform="matrix(0.131534,0,0,0.131534,-6.96632,-20.2663)">
                <path d="M693.859,425.302C675.243,425.302 604.665,425.302 604.665,425.302C601.022,425.339 597.403,424.713 593.975,423.451L593.966,423.447C590.327,422.062 587.028,419.91 584.294,417.138C579.065,411.954 576.126,404.885 576.138,397.537C576.134,397.286 576.132,397.035 576.133,396.784C576.089,392.983 576.827,389.213 578.307,385.698L578.312,385.687C579.725,382.457 581.767,379.541 584.319,377.109C589.286,372.276 595.886,369.472 602.813,369.253C603.428,369.223 604.044,369.208 604.657,369.209C604.657,369.209 751.835,369.209 751.835,369.209C759.098,369.102 766.09,372.01 771.136,377.235C771.349,377.449 771.559,377.666 771.767,377.886C776.293,382.674 778.877,388.98 779.013,395.567C779.069,396.928 779.042,398.332 778.931,399.799L778.929,399.82C778.602,403.09 778.03,406.36 777.212,409.63C776.372,412.993 774.139,417.048 770.442,421.755L657.775,567.532C675.654,567.532 754.229,567.532 754.229,567.532C757.773,567.497 761.297,568.072 764.655,569.232L764.663,569.235C768.379,570.56 771.762,572.676 774.58,575.437C779.617,580.285 782.544,586.93 782.721,593.904C782.747,594.458 782.76,595.013 782.761,595.568C782.815,599.944 781.834,604.271 779.893,608.205L779.889,608.214C778.525,610.899 776.739,613.347 774.597,615.464C769.413,620.69 762.347,623.627 754.996,623.615C754.744,623.621 754.492,623.625 754.238,623.625C754.238,623.625 600.365,623.625 600.365,623.625C597.078,623.66 593.81,623.128 590.694,622.048L590.683,622.044C586.455,620.519 582.721,617.871 579.884,614.386C578.329,612.543 576.961,610.55 575.798,608.432L575.796,608.427C573.759,604.663 572.754,600.896 572.754,597.129L572.754,597.126C572.756,596.735 572.768,596.343 572.791,595.948L572.791,595.943C572.922,593.91 573.125,591.882 573.402,589.861L573.402,589.858C573.75,587.37 574.202,585.066 574.758,582.94L574.76,582.934C575.158,581.458 575.695,580.023 576.366,578.648C577.651,575.975 579.53,573.065 582.017,569.923L582.019,569.92C582.095,569.825 582.17,569.731 582.247,569.636L693.859,425.302ZM416.168,624.862L394.018,633.083C397.534,633.866 400.989,634.918 404.351,636.231L404.355,636.233C412.865,639.604 420.972,643.378 428.679,647.552C436.269,651.663 444.097,655.379 452.161,658.7C457.055,660.684 462.177,662.05 467.411,662.768L467.414,662.768C471.4,663.326 475.421,663.6 479.452,663.587L479.459,663.587C482.593,663.601 485.724,663.379 488.825,662.923C493.16,662.264 497.028,661.114 500.426,659.463L500.427,659.462C503.549,657.952 506.583,656.267 509.515,654.416C511.628,653.083 513.672,651.643 515.647,650.097L515.655,650.091C518.148,648.184 520.638,646.272 523.124,644.356C525.636,642.42 528.002,640.591 530.22,638.87C534.849,635.269 539.912,633.48 545.404,633.48L545.408,633.48C550.529,633.505 555.53,635.047 559.776,637.91C561.744,639.206 563.581,640.689 565.263,642.339C567.754,644.716 569.841,647.484 571.442,650.542L571.445,650.548C573.416,654.391 574.43,658.654 574.402,662.973C574.367,667.983 572.954,672.888 570.317,677.148C568.816,679.655 566.899,682.11 564.56,684.51C564.407,684.669 564.254,684.827 564.091,684.993L564.083,685.001C560.333,688.714 556.242,692.066 551.868,695.011C547.603,697.892 543.15,700.483 538.539,702.769C528.236,707.921 517.53,711.946 506.421,714.844C501.805,716.06 497.133,717.052 492.419,717.818L492.417,717.819C487.552,718.596 482.923,719.045 478.53,719.168C477.722,719.191 476.914,719.202 476.109,719.203C470.282,719.214 464.456,719.032 458.639,718.659L458.637,718.659C446.709,717.868 436.659,716.207 428.485,713.69C428.422,713.672 428.36,713.654 428.285,713.632L428.272,713.627C416.326,709.914 406.481,705.71 398.732,701.028C391.109,696.422 383.963,692.293 377.292,688.64C370.836,685.104 362.99,683.361 353.762,683.361L353.758,683.361C351.893,683.351 350.029,683.468 348.18,683.709C346.371,683.957 344.713,684.334 343.205,684.846L343.202,684.847C342.112,685.212 341.058,685.679 340.055,686.241C336.36,688.329 332.345,690.417 328.001,692.509L327.994,692.513C326.191,693.359 324.305,694.013 322.365,694.463C318.753,695.334 314.445,695.78 309.439,695.786C309.439,695.786 309.336,695.786 309.336,695.786C309.332,695.786 309.328,695.786 309.323,695.786C301.664,695.905 294.294,692.815 289.011,687.267C288.646,686.894 288.29,686.513 287.943,686.124C285.753,683.716 283.895,681.025 282.418,678.124C280.412,674.165 279.365,669.788 279.365,665.35C279.365,653.101 284.482,644.648 294.623,639.933L294.625,639.932C295.482,639.536 296.354,639.174 297.24,638.848L339.161,623.254C337.968,622.949 336.778,622.63 335.591,622.297L335.587,622.296C328.649,620.319 321.864,617.836 315.288,614.867C295.315,605.847 278.001,593.363 263.343,577.417C248.698,561.485 237.351,543.06 229.303,522.136L229.302,522.133C222.173,503.386 218.162,483.598 217.428,463.555C217.302,460.574 217.239,457.59 217.24,454.606C217.15,437.196 219.431,419.855 224.022,403.057L224.023,403.054C225.526,397.642 227.288,392.307 229.304,387.065C237.351,366.144 248.698,347.719 263.343,331.787C278.001,315.841 295.315,303.357 315.288,294.337C335.26,285.317 357.164,280.8 381.001,280.8C397.079,280.704 413.085,282.957 428.516,287.486L428.52,287.487C434.809,289.364 440.969,291.652 446.959,294.335C467.094,303.355 484.489,315.84 499.148,331.787C513.792,347.719 525.14,366.144 533.187,387.068L533.189,387.071C540.315,405.817 544.325,425.603 545.058,445.643C545.186,448.626 545.25,451.611 545.251,454.597C545.339,472.006 543.056,489.346 538.464,506.142L538.463,506.145C536.962,511.558 535.201,516.895 533.186,522.139C525.14,543.06 513.792,561.485 499.148,577.417C484.489,593.364 467.094,605.849 446.955,614.871L446.952,614.872C437.041,619.264 426.724,622.607 416.168,624.862ZM479.6,454.591C479.675,442.323 478.083,430.101 474.869,418.261C472.876,411.043 470.201,404.032 466.877,397.315L466.874,397.309C461.395,386.031 453.984,375.798 444.977,367.076C440.983,363.253 436.678,359.769 432.107,356.661C419.09,347.86 403.922,342.76 388.222,341.908L388.211,341.907C385.813,341.749 383.411,341.67 381,341.672L380.992,341.672C370.775,341.587 360.611,343.145 350.888,346.287C343.446,348.747 336.385,352.238 329.911,356.657C315.533,366.501 303.914,379.868 296.166,395.484L296.163,395.49C295.897,396.016 295.635,396.543 295.375,397.075L295.374,397.076C287.045,414.05 282.891,433.227 282.891,454.607L282.891,454.612C282.821,466.572 284.302,478.491 287.297,490.07C289.275,497.591 291.981,504.9 295.381,511.901L295.383,511.907C300.759,523.185 308.098,533.417 317.057,542.126C321.04,545.953 325.338,549.437 329.906,552.543C342.922,561.341 358.088,566.44 373.787,567.291L373.798,567.292C376.197,567.452 378.601,567.532 381.013,567.532L381.021,567.532C391.236,567.615 401.399,566.055 411.12,562.912C418.564,560.454 425.627,556.964 432.104,552.546C446.83,542.519 458.418,528.962 466.878,511.886C473.867,497.614 478.034,482.125 479.151,466.266L479.151,466.26C479.452,462.381 479.602,458.493 479.6,454.597L479.6,454.591Z"/>
            </g>
        </g>
    </g>
</svg>
